<mxfile host="app.diagrams.net" modified="2021-05-18T03:42:09.964Z" agent="5.0 (Windows)" etag="AJ_sZPHNnf9GLhxcvDHB" version="14.6.11" type="github">
  <diagram name="Page-1" id="c4acf3e9-155e-7222-9cf6-157b1a14988f">
    <mxGraphModel dx="1144" dy="790" grid="1" gridSize="10" guides="1" tooltips="1" connect="1" arrows="1" fold="1" page="1" pageScale="1" pageWidth="850" pageHeight="1100" background="#ffffff" math="0" shadow="0">
      <root>
        <mxCell id="0" />
        <mxCell id="1" parent="0" />
        <mxCell id="V-1RNXK7oli8FYa7mB7J-1" value="&lt;div&gt;Обычный&lt;/div&gt;&lt;div&gt;пользователь&lt;br&gt;&lt;/div&gt;" style="shape=umlActor;verticalLabelPosition=bottom;verticalAlign=top;html=1;outlineConnect=0;" vertex="1" parent="1">
          <mxGeometry x="160" y="320" width="30" height="60" as="geometry" />
        </mxCell>
        <mxCell id="V-1RNXK7oli8FYa7mB7J-3" value="Менеджер" style="shape=umlActor;verticalLabelPosition=bottom;verticalAlign=top;html=1;outlineConnect=0;" vertex="1" parent="1">
          <mxGeometry x="330" y="170" width="30" height="60" as="geometry" />
        </mxCell>
        <mxCell id="V-1RNXK7oli8FYa7mB7J-4" value="&lt;div&gt;Владелец &lt;br&gt;&lt;/div&gt;&lt;div&gt;магазина&lt;/div&gt;" style="shape=umlActor;verticalLabelPosition=bottom;verticalAlign=top;html=1;outlineConnect=0;" vertex="1" parent="1">
          <mxGeometry x="330" y="330" width="30" height="60" as="geometry" />
        </mxCell>
      </root>
    </mxGraphModel>
  </diagram>
</mxfile>
